<svg width="30" height="27" viewBox="0 0 30 27" fill="none" xmlns="http://www.w3.org/2000/svg">
<path d="M26.938 12.2198H2.73594C2.66899 12.2198 2.60287 12.2049 2.54241 12.1761C2.48195 12.1474 2.42868 12.1055 2.38648 12.0535C2.34428 12.0015 2.31422 11.9407 2.29848 11.8757C2.28275 11.8106 2.28174 11.7428 2.29554 11.6773L4.67976 0.357183C4.70101 0.256222 4.75632 0.165636 4.83642 0.100607C4.91652 0.035577 5.01654 5.69541e-05 5.11971 0H24.5538C24.657 5.69541e-05 24.757 0.035577 24.8371 0.100607C24.9172 0.165636 24.9725 0.256222 24.9938 0.357183L27.378 11.6773C27.3918 11.7428 27.3908 11.8106 27.375 11.8757C27.3593 11.9407 27.3292 12.0015 27.287 12.0535C27.2448 12.1055 27.1916 12.1474 27.1311 12.1761C27.0706 12.2049 27.0045 12.2198 26.9376 12.2198H26.938ZM3.29196 11.3201H26.3829L24.1872 0.899705H5.48679L3.29196 11.3201Z" fill="#1565D8"/>
<path d="M23.1737 9.441H6.50037C6.4307 9.44104 6.36199 9.4249 6.29963 9.39386C6.23727 9.36281 6.18297 9.31771 6.14101 9.2621C6.09905 9.20649 6.07059 9.1419 6.05785 9.07341C6.04511 9.00493 6.04845 8.93442 6.06761 8.86744L7.71137 3.10528C7.73815 3.01126 7.79484 2.92853 7.87284 2.8696C7.95084 2.81067 8.04592 2.77876 8.14368 2.77869H21.5299C21.6278 2.77866 21.723 2.81053 21.8011 2.86946C21.8791 2.9284 21.9359 3.01119 21.9627 3.10528L23.6065 8.86744C23.6256 8.93442 23.629 9.00493 23.6162 9.07341C23.6035 9.1419 23.575 9.20649 23.5331 9.2621C23.4911 9.31771 23.4368 9.36281 23.3744 9.39386C23.3121 9.4249 23.2434 9.44104 23.1737 9.441ZM7.09642 8.5413H22.5777L21.1908 3.67839H8.48332L7.09642 8.5413Z" fill="#1565D8"/>
<path d="M29.2241 22.2789H0.449761C0.330453 22.2789 0.216031 22.2315 0.131667 22.1472C0.0473034 22.0628 -9.15527e-05 21.9484 -9.15527e-05 21.8291V13.6175C0.000503732 13.0084 0.24268 12.4245 0.673299 11.9938C1.10392 11.5631 1.68781 11.3208 2.29686 11.3201H27.377C27.9861 11.3208 28.57 11.5631 29.0006 11.9938C29.4312 12.4245 29.6734 13.0084 29.674 13.6175V21.8291C29.674 21.9484 29.6266 22.0628 29.5422 22.1472C29.4579 22.2315 29.3435 22.2789 29.2241 22.2789ZM0.899614 21.3792H28.7743V13.6175C28.7739 13.247 28.6266 12.8917 28.3647 12.6297C28.1027 12.3677 27.7475 12.2202 27.377 12.2198H2.29686C1.92635 12.2202 1.57117 12.3677 1.30922 12.6297C1.04728 12.8917 0.899971 13.247 0.899614 13.6175V21.3792Z" fill="#1565D8"/>
<path d="M24.5538 19.636C23.9933 19.636 23.4454 19.4698 22.9793 19.1584C22.5132 18.847 22.15 18.4044 21.9355 17.8865C21.721 17.3687 21.6649 16.7988 21.7742 16.2491C21.8836 15.6993 22.1535 15.1943 22.5498 14.798C22.9462 14.4016 23.4512 14.1317 24.0009 14.0224C24.5507 13.913 25.1205 13.9691 25.6384 14.1836C26.1562 14.3981 26.5989 14.7614 26.9103 15.2274C27.2217 15.6935 27.3879 16.2414 27.3879 16.802C27.3867 17.5532 27.0877 18.2734 26.5565 18.8046C26.0253 19.3359 25.3051 19.6349 24.5538 19.636ZM24.5538 14.8676C24.1712 14.8676 23.7973 14.9811 23.4792 15.1936C23.161 15.4062 22.9131 15.7083 22.7667 16.0617C22.6203 16.4152 22.582 16.8041 22.6566 17.1793C22.7313 17.5546 22.9155 17.8992 23.186 18.1698C23.4566 18.4403 23.8012 18.6245 24.1765 18.6992C24.5517 18.7738 24.9406 18.7355 25.2941 18.5891C25.6475 18.4427 25.9496 18.1948 26.1622 17.8766C26.3747 17.5585 26.4882 17.1845 26.4882 16.802C26.4881 16.2886 26.2844 15.7963 25.9217 15.433C25.5591 15.0697 25.0671 14.8651 24.5538 14.864V14.8676Z" fill="#1565D8"/>
<path d="M5.12011 19.636C4.55959 19.636 4.01165 19.4698 3.54559 19.1584C3.07953 18.847 2.71628 18.4044 2.50177 17.8865C2.28727 17.3687 2.23115 16.7988 2.3405 16.2491C2.44985 15.6993 2.71977 15.1943 3.11612 14.798C3.51247 14.4016 4.01746 14.1317 4.56721 14.0224C5.11697 13.913 5.68681 13.9691 6.20467 14.1836C6.72253 14.3981 7.16515 14.7614 7.47656 15.2274C7.78797 15.6935 7.95419 16.2414 7.95419 16.802C7.95311 17.5533 7.65418 18.2735 7.12292 18.8048C6.59166 19.336 5.87143 19.635 5.12011 19.636ZM5.12011 14.8676C4.73753 14.8676 4.36354 14.9811 4.04544 15.1936C3.72733 15.4062 3.4794 15.7083 3.33299 16.0617C3.18658 16.4152 3.14828 16.8041 3.22292 17.1793C3.29755 17.5546 3.48178 17.8992 3.75231 18.1698C4.02284 18.4403 4.36751 18.6245 4.74274 18.6992C5.11797 18.7738 5.5069 18.7355 5.86036 18.5891C6.21382 18.4427 6.51593 18.1948 6.72848 17.8766C6.94103 17.5585 7.05448 17.1845 7.05448 16.802C7.05448 16.2886 6.8508 15.7962 6.48814 15.4329C6.12548 15.0696 5.63347 14.865 5.12011 14.864V14.8676Z" fill="#1565D8"/>
<path d="M20.3499 15.815H9.41351C9.2942 15.815 9.17978 15.7676 9.09541 15.6832C9.01105 15.5989 8.96365 15.4844 8.96365 15.3651C8.96365 15.2458 9.01105 15.1314 9.09541 15.047C9.17978 14.9627 9.2942 14.9153 9.41351 14.9153H20.3499C20.4692 14.9153 20.5836 14.9627 20.668 15.047C20.7523 15.1314 20.7997 15.2458 20.7997 15.3651C20.7997 15.4844 20.7523 15.5989 20.668 15.6832C20.5836 15.7676 20.4692 15.815 20.3499 15.815Z" fill="#1565D8"/>
<path d="M20.3499 18.6836H9.41351C9.2942 18.6836 9.17978 18.6362 9.09541 18.5519C9.01105 18.4675 8.96365 18.3531 8.96365 18.2338C8.96365 18.1145 9.01105 18.0001 9.09541 17.9157C9.17978 17.8313 9.2942 17.7839 9.41351 17.7839H20.3499C20.4692 17.7839 20.5836 17.8313 20.668 17.9157C20.7523 18.0001 20.7997 18.1145 20.7997 18.2338C20.7997 18.3531 20.7523 18.4675 20.668 18.5519C20.5836 18.6362 20.4692 18.6836 20.3499 18.6836Z" fill="#1565D8"/>
<path d="M26.3336 26.7663H21.8292C21.5011 26.7659 21.1864 26.6355 20.9542 26.4036C20.722 26.1718 20.5912 25.8573 20.5903 25.5292V21.8291C20.5903 21.7098 20.6377 21.5954 20.7221 21.511C20.8065 21.4267 20.9209 21.3793 21.0402 21.3793H27.1231C27.2424 21.3793 27.3568 21.4267 27.4412 21.511C27.5255 21.5954 27.5729 21.7098 27.5729 21.8291V25.5292C27.572 25.8574 27.441 26.1718 27.2088 26.4037C26.9765 26.6355 26.6618 26.7659 26.3336 26.7663ZM21.49 22.279V25.5292C21.4902 25.6191 21.5259 25.7053 21.5895 25.7689C21.6531 25.8325 21.7393 25.8682 21.8292 25.8684H26.3336C26.4236 25.8684 26.5099 25.8326 26.5736 25.769C26.6373 25.7054 26.6731 25.6192 26.6732 25.5292V22.279H21.49Z" fill="#1565D8"/>
<path d="M7.84491 26.7663H3.34054C3.01234 26.7659 2.69766 26.6355 2.46538 26.4037C2.2331 26.1718 2.10215 25.8574 2.1012 25.5292V21.8291C2.1012 21.7098 2.14859 21.5954 2.23296 21.511C2.31732 21.4267 2.43174 21.3793 2.55105 21.3793H8.63396C8.75326 21.3793 8.86769 21.4267 8.95205 21.511C9.03641 21.5954 9.08381 21.7098 9.08381 21.8291V25.5292C9.08298 25.8573 8.95212 26.1718 8.71992 26.4036C8.48771 26.6355 8.17307 26.7659 7.84491 26.7663ZM3.0009 22.279V25.5292C3.00102 25.6192 3.03686 25.7054 3.10054 25.769C3.16422 25.8326 3.25054 25.8684 3.34054 25.8684H7.84491C7.93484 25.8682 8.02104 25.8325 8.08463 25.7689C8.14821 25.7053 8.18398 25.6191 8.1841 25.5292V22.279H3.0009Z" fill="#1565D8"/>
</svg>
