<svg width="24" height="24" viewBox="0 0 24 24" fill="none" xmlns="http://www.w3.org/2000/svg">
<path d="M12 24C18.6075 24 24 18.6071 24 12C24 5.3925 18.6071 0 12 0C5.39255 0 0 5.39292 0 12C0 18.6075 5.39292 24 12 24ZM15.56 21.9777C16.2399 21.1088 16.7611 20.0725 17.1525 19.0308H19.9166C18.7454 20.3484 17.2515 21.3723 15.56 21.9777ZM20.973 17.625H17.6071C18.0221 16.1162 18.2655 14.4433 18.3172 12.7031H22.5698C22.4513 14.5026 21.8817 16.1805 20.973 17.625ZM20.973 6.375C21.8817 7.81945 22.4513 9.49744 22.5698 11.2969H18.3172C18.2655 9.55669 18.0221 7.88381 17.6071 6.375H20.973ZM19.9165 4.96875H17.1525C16.7612 3.92789 16.2401 2.89144 15.56 2.02233C17.2515 2.62772 18.7454 3.65156 19.9165 4.96875ZM12.7031 1.52653C14.0829 1.9942 15.0728 3.6352 15.639 4.96875H12.7031V1.52653ZM12.7031 6.375H16.145C16.5921 7.85522 16.8551 9.53452 16.9105 11.2969H12.7031V6.375ZM12.7031 12.7027H16.9105C16.8551 14.4655 16.5921 16.1448 16.145 17.625H12.7031V12.7027ZM12.7031 19.0308H15.639C15.0719 20.367 14.0818 22.0062 12.7031 22.4735V19.0308ZM4.08347 19.0312H6.8475C7.23881 20.0721 7.75992 21.1086 8.44003 21.9777C6.74845 21.3723 5.25464 20.3484 4.08347 19.0312ZM11.2969 22.4735C9.91823 22.0062 8.92823 20.3672 8.36105 19.0312H11.2969V22.4735ZM11.2969 17.625H7.85498C7.40789 16.1448 7.14488 14.4655 7.08952 12.7031H11.2969V17.625ZM11.2969 11.2969H7.08952C7.14488 9.53452 7.40789 7.85522 7.85498 6.375H11.2969V11.2969ZM11.2969 1.52653V4.96875H8.36105C8.92819 3.63291 9.91814 1.99383 11.2969 1.52653ZM8.43998 2.02233C7.76006 2.89116 7.23895 3.92742 6.84745 4.96875H4.08347C5.25464 3.65156 6.74845 2.62767 8.43998 2.02233ZM3.02705 6.37453H6.39286C5.97792 7.88381 5.7345 9.55669 5.68275 11.2969H1.43016C1.54866 9.49744 2.11828 7.81945 3.02705 6.37453ZM1.43016 12.7031H5.68275C5.7345 14.4433 5.97792 16.1162 6.39286 17.625H3.02705C2.11828 16.1805 1.54866 14.5026 1.43016 12.7031Z" fill="black"/>
</svg>
