<svg width="24" height="24" viewBox="0 0 24 24" fill="none" xmlns="http://www.w3.org/2000/svg">
<path d="M22.3743 15.2329C22.0529 13.569 20.8045 12.2449 19.3101 11.5239L17.3628 10.5849L15.4839 0.793456L12.0964 -0.845828L11.2009 7.61373L8.04356 6.09104L8.34285 4.29661L4.99795 0.652756L2.36479 9.48605L21.642 18.7561C22.2466 17.6509 22.6206 16.5089 22.3743 15.2329ZM10.5393 11.8668L4.05228 8.73857L5.62572 3.41071L6.84297 4.74093L6.48344 6.89976L12.3891 9.74771L13.2841 1.29112L14.2358 1.75167L15.8885 10.3638L10.5393 11.8668ZM12.453 12.79L16.3985 11.6813L18.6992 12.7908C20.2375 13.5325 21.4068 15.1247 20.9472 16.8861L12.453 12.79Z" fill="black"/>
<path d="M0 19.981H24V21.3873H0V19.981Z" fill="black"/>
</svg>
