<svg width="192" height="31" viewBox="0 0 192 31" fill="none" xmlns="http://www.w3.org/2000/svg">
<g clip-path="url(#clip0_84_7923)">
<path d="M22.6275 18.4465C22.4245 18.8155 22.2118 19.179 21.9894 19.5372C21.7881 19.8623 21.5799 20.1822 21.3648 20.497C19.3009 18.2793 16.4394 16.9633 13.4043 16.836C13.2357 16.8281 13.0649 16.8241 12.8934 16.8241C12.7219 16.8241 12.5511 16.8281 12.3822 16.836C10.1594 16.9318 8.01189 17.665 6.19834 18.9472C6.58591 19.5302 6.99928 20.0939 7.43844 20.6383C7.48786 20.7001 7.53836 20.7619 7.58959 20.823C9.00004 19.8337 10.6625 19.2604 12.3858 19.1692C12.5532 19.1602 12.7219 19.1557 12.8919 19.1554C13.062 19.1552 13.2307 19.1598 13.3981 19.1692C15.1214 19.2606 16.7837 19.8338 18.1943 20.823C18.8368 21.2732 19.4192 21.8028 19.9274 22.3992C19.6261 22.7636 19.3147 23.1189 18.9933 23.4652C18.7789 23.6971 18.5602 23.9241 18.3371 24.1463C17.9614 24.5232 17.5738 24.8881 17.1743 25.2409C16.9869 25.4077 16.7965 25.5712 16.6032 25.7315C16.1306 26.1262 15.6432 26.5032 15.1411 26.8622C15.0077 26.9595 14.8725 27.0538 14.7366 27.1471C14.1408 27.5592 13.5265 27.9455 12.8937 28.3061C12.2622 27.9446 11.6479 27.5583 11.0508 27.1471C10.9146 27.0538 10.7794 26.9595 10.6461 26.8622C10.1447 26.5032 9.65729 26.1267 9.18397 25.7329C9.6504 25.0742 10.2856 24.5517 11.0236 24.2197C11.6229 24.7005 12.2461 25.1516 12.8934 25.5731C13.5394 25.1521 14.1626 24.701 14.7628 24.2197L14.9256 24.0881C15.5118 23.6102 16.0728 23.1041 16.6086 22.5698C15.8806 22.1034 15.0701 21.7789 14.2203 21.6136C13.3444 21.4437 12.4438 21.4437 11.5679 21.6136C9.93175 21.9335 8.46797 22.8335 7.44862 24.1463C7.22576 23.9236 7.00715 23.6966 6.79277 23.4652C6.47012 23.1189 6.15764 22.7636 5.85533 22.3992C5.62643 22.1235 5.40381 21.8428 5.1875 21.5572C4.92226 21.2107 4.66707 20.8573 4.42193 20.497C4.2061 20.1822 3.99766 19.8623 3.79661 19.5372C3.57448 19.18 3.36168 18.8165 3.1582 18.4465C3.72775 17.891 4.34433 17.3853 5.0011 16.9351C6.8462 15.6661 8.97383 14.8627 11.2005 14.594C11.3702 14.5734 11.5421 14.5579 11.7136 14.542C12.1024 14.5099 12.4954 14.4936 12.8927 14.4932C13.2891 14.4932 13.6829 14.5098 14.0714 14.542C14.2432 14.5568 14.4147 14.5734 14.5844 14.594C17.618 14.9641 20.4447 16.3181 22.6275 18.4465Z" fill="#F5A623"/>
<path d="M2.34505 5.9525C2.34323 6.02697 2.34323 6.10072 2.34323 6.17519C2.34323 6.24966 2.34323 6.3234 2.34505 6.39823V6.40185C2.34795 6.82191 2.36394 7.23908 2.38938 7.65445C3.13198 7.27987 3.89443 6.9456 4.67338 6.65309L4.69191 6.64622C5.45788 6.35918 6.23874 6.11313 7.03115 5.90912H7.03623C7.80069 5.71208 8.57478 5.55414 9.35548 5.43592C9.36638 5.43411 9.37837 5.43194 9.38891 5.43122C10.1504 5.31555 10.9174 5.23821 11.6867 5.1995C11.7074 5.19769 11.7292 5.19661 11.7499 5.19552C12.1286 5.17721 12.5097 5.16805 12.8934 5.16805C13.2771 5.16805 13.6582 5.17721 14.0369 5.19552C14.0576 5.19552 14.079 5.19769 14.0997 5.1995C14.8691 5.23761 15.636 5.31435 16.3975 5.42941C16.4084 5.42941 16.4201 5.43231 16.431 5.43411C17.2118 5.55233 17.986 5.71028 18.7506 5.90732C18.7521 5.90746 18.7537 5.90746 18.7553 5.90732C19.5477 6.11163 20.3286 6.35804 21.0945 6.6455C21.1003 6.64767 21.1072 6.65056 21.1134 6.65237C22.7006 7.24943 24.2174 8.01736 25.6367 8.94247C25.5735 9.52955 25.4903 10.11 25.3871 10.6838C25.3388 10.9557 25.2854 11.2261 25.2272 11.4943C24.547 11.0008 23.8377 10.5482 23.1031 10.139C22.39 9.742 21.654 9.38699 20.899 9.07586C20.3221 8.83727 19.7325 8.62495 19.1303 8.4389C18.9664 8.38901 18.8033 8.33985 18.6368 8.2943C17.9493 8.10013 17.2522 7.94122 16.5483 7.81821C16.4775 7.80555 16.4062 7.79254 16.3354 7.78206C15.6081 7.66286 14.8751 7.58153 14.1393 7.5384C14.095 7.53551 14.0507 7.53371 14.0052 7.53154C13.6373 7.51202 13.2667 7.50225 12.8934 7.50225C12.5201 7.50225 12.1495 7.51202 11.7816 7.53154C11.7361 7.53371 11.6918 7.53551 11.6471 7.5384C10.9113 7.58157 10.1783 7.6629 9.45104 7.78206C9.38019 7.79362 9.30897 7.80664 9.23812 7.81821C8.53423 7.9413 7.83714 8.1002 7.1496 8.2943C6.98391 8.3413 6.82004 8.39046 6.65617 8.4389C6.05447 8.62544 5.46487 8.83776 4.88739 9.07586C4.13244 9.38706 3.39648 9.74207 2.68332 10.139C2.81171 10.8818 2.97546 11.6124 3.17457 12.3308L3.22798 12.522C4.58503 11.6997 6.04259 11.0541 7.5649 10.601C7.82724 10.5232 8.092 10.4509 8.35918 10.3841C8.84825 10.2622 9.34482 10.1598 9.84891 10.0769C10.2622 10.0091 10.6801 9.95551 11.1028 9.91599C11.4686 9.88056 11.8375 9.85646 12.2096 9.84369C12.4367 9.83465 12.6645 9.83104 12.8934 9.83104C13.1223 9.83104 13.3501 9.83465 13.5769 9.84369C13.9489 9.85646 14.318 9.88056 14.684 9.91599C15.1062 9.95503 15.5242 10.0087 15.9379 10.0769C16.442 10.1593 16.9386 10.2617 17.4276 10.3841C17.6941 10.4499 17.9587 10.5222 18.2215 10.601C20.5381 11.2911 22.697 12.4244 24.5772 13.9373C24.437 14.374 24.2857 14.8052 24.1234 15.2308C23.9911 15.5764 23.8516 15.9183 23.7048 16.2567C23.1002 15.7212 22.4565 15.231 21.7791 14.7901C20.4623 13.9336 19.0273 13.2724 17.5192 12.8272C16.9945 12.6719 16.4621 12.5439 15.9241 12.4436C15.6843 12.3984 15.4416 12.3579 15.1974 12.3247C14.4961 12.225 13.7889 12.1709 13.0805 12.1627C13.0184 12.1627 12.9552 12.1627 12.893 12.1627C12.8309 12.1627 12.7677 12.1627 12.7056 12.1627C11.997 12.1706 11.2898 12.2243 10.5883 12.3236C10.3445 12.3568 10.1018 12.3959 9.86163 12.4425C9.32384 12.5432 8.79167 12.6716 8.26726 12.8272C6.75872 13.2723 5.32334 13.9335 4.00627 14.7901C3.32883 15.231 2.68515 15.7212 2.08053 16.2567C1.9335 15.9193 1.79409 15.5773 1.66232 15.2308C1.49954 14.8049 1.34826 14.3738 1.2085 13.9373C1.10676 13.6214 1.0112 13.3011 0.922177 12.9793C0.786285 12.4906 0.663837 11.9957 0.558829 11.495C0.500693 11.2272 0.447645 10.9564 0.399319 10.6845C0.296855 10.1102 0.21377 9.52979 0.150063 8.94319C0.128262 8.74871 0.109125 8.55338 0.0926537 8.3572C0.0345181 7.67686 0.00363348 6.98917 0 6.29412C0 6.25472 0 6.21459 0 6.17519C0 5.44014 0.0308846 4.7128 0.0926537 3.99317C0.104765 3.84857 0.11833 3.70397 0.133349 3.55937C0.947975 3.1422 1.78586 2.76432 2.64699 2.42571L2.67351 2.41595C3.49831 2.09397 4.3408 1.81068 5.20096 1.56606C5.21404 1.56209 5.22567 1.55811 5.2373 1.55522C6.06089 1.32169 6.90034 1.126 7.75566 0.968143C7.7604 0.974394 7.76476 0.980912 7.76874 0.987664C7.77059 0.980063 7.7729 0.972579 7.77565 0.965251C8.60117 0.811975 9.43942 0.696536 10.2904 0.618933C10.3042 0.642431 10.318 0.667013 10.3296 0.691234C10.3387 0.665567 10.3485 0.639178 10.3583 0.613511C11.18 0.539524 12.0108 0.501687 12.8509 0.5C12.8658 0.531451 12.8796 0.562901 12.8934 0.594352C12.9072 0.562901 12.921 0.531451 12.9356 0.5C13.7754 0.5 14.6057 0.537596 15.4267 0.612788C15.4365 0.638454 15.4466 0.664844 15.4554 0.690511C15.4674 0.667013 15.4812 0.642431 15.495 0.618211C16.3452 0.695572 17.1835 0.811011 18.0097 0.964528C18.0126 0.972481 18.0144 0.979349 18.0166 0.986941C18.0203 0.980114 18.0246 0.973587 18.0293 0.96742C18.8837 1.12552 19.7233 1.32121 20.5481 1.5545C20.5608 1.55739 20.5728 1.56136 20.5844 1.56534C21.4455 1.80923 22.2884 2.09277 23.1129 2.41595C23.122 2.41884 23.1307 2.42282 23.1398 2.42571C23.9993 2.76311 24.8371 3.1404 25.6535 3.55757C25.6684 3.70217 25.6822 3.84677 25.6938 3.99137C25.7553 4.71123 25.7862 5.43857 25.7864 6.17338C25.7864 6.21278 25.7864 6.25291 25.7864 6.29231C25.0997 5.89274 24.393 5.52533 23.6663 5.1901C23.5835 5.15178 23.5005 5.11407 23.4174 5.07695C22.7886 4.79715 22.1471 4.54097 21.4931 4.3084C21.3303 4.25056 21.1661 4.19345 21.0008 4.13958C20.4216 3.94678 19.834 3.77531 19.2378 3.62517C19.0129 3.56733 18.7869 3.51346 18.5591 3.46213C18.0175 3.34163 17.4696 3.23728 16.9157 3.14907C16.6471 3.10714 16.3786 3.06954 16.1076 3.03628C15.5894 2.9717 15.0662 2.92265 14.5379 2.88915C14.2487 2.87036 13.958 2.85686 13.6659 2.84867C13.4094 2.84107 13.151 2.8371 12.8927 2.8371C12.6343 2.8371 12.3756 2.84107 12.1191 2.84867C11.827 2.85662 11.5363 2.87011 11.2471 2.88915C10.7192 2.92241 10.196 2.97146 9.67741 3.03628C9.40599 3.06954 9.13747 3.10858 8.86932 3.14907C8.31485 3.23656 7.76693 3.34091 7.22554 3.46213C6.99772 3.51346 6.77172 3.56733 6.5468 3.62517C5.95091 3.77555 5.36326 3.94702 4.78384 4.13958C4.61924 4.19345 4.45428 4.25056 4.2915 4.3084C3.63748 4.54024 2.99629 4.79703 2.36794 5.07876C2.35316 5.36796 2.34493 5.65788 2.34323 5.94853L2.34505 5.9525Z" fill="#F5A623"/>
</g>
<path d="M51.2061 19.1546H52.5816C52.4698 20.2506 52.1678 21.1975 51.6758 21.9952C51.1837 22.7855 50.5127 23.3932 49.6627 23.8181C48.8128 24.2431 47.7876 24.4556 46.5872 24.4556C45.6627 24.4556 44.824 24.2804 44.0709 23.93C43.3254 23.5796 42.6842 23.0838 42.1474 22.4426C41.6106 21.7939 41.1968 21.0185 40.906 20.1164C40.6152 19.2142 40.4698 18.2114 40.4698 17.108V15.0726C40.4698 13.9692 40.6152 12.9701 40.906 12.0754C41.1968 11.1733 41.6143 10.3979 42.1585 9.74922C42.7028 9.10057 43.3552 8.60104 44.1157 8.25062C44.8762 7.9002 45.7336 7.72499 46.6879 7.72499C47.8435 7.72499 48.8426 7.93748 49.6851 8.36246C50.5276 8.77998 51.1911 9.38389 51.6758 10.1742C52.1678 10.9645 52.4698 11.9188 52.5816 13.0372H51.2061C51.1017 12.1574 50.8705 11.4118 50.5127 10.8005C50.1548 10.1891 49.659 9.72312 49.0253 9.40253C48.399 9.07448 47.6199 8.91045 46.6879 8.91045C45.9274 8.91045 45.2489 9.05584 44.6525 9.34661C44.056 9.63738 43.549 10.0549 43.1315 10.5992C42.714 11.136 42.3934 11.7809 42.1697 12.5339C41.9535 13.287 41.8454 14.1257 41.8454 15.0502V17.108C41.8454 18.0027 41.9498 18.8265 42.1585 19.5796C42.3673 20.3326 42.673 20.985 43.0756 21.5367C43.4857 22.0884 43.9852 22.5171 44.5742 22.8228C45.1632 23.1285 45.8342 23.2813 46.5872 23.2813C47.549 23.2813 48.3505 23.1285 48.9917 22.8228C49.6404 22.5097 50.1436 22.0474 50.5015 21.436C50.8594 20.8247 51.0942 20.0642 51.2061 19.1546ZM61.2824 8.92163L55.6459 24.2319H54.2144L60.3654 7.94866H61.3607L61.2824 8.92163ZM66.4045 24.2319L60.7568 8.92163L60.6785 7.94866H61.6739L67.836 24.2319H66.4045ZM65.398 18.4836V19.669H56.7531V18.4836H65.398ZM70.2181 7.94866H75.5079C76.6337 7.94866 77.6104 8.13133 78.438 8.49666C79.2656 8.86199 79.9031 9.40253 80.3504 10.1183C80.8052 10.8266 81.0326 11.6989 81.0326 12.7352C81.0326 13.5032 80.8686 14.2003 80.5405 14.8266C80.2199 15.4528 79.7763 15.9785 79.2097 16.4034C78.6431 16.821 77.987 17.108 77.2414 17.2646L76.7605 17.4435H71.1128L71.0904 16.2692H75.8211C76.671 16.2692 77.3793 16.1052 77.946 15.7772C78.5126 15.4491 78.9376 15.0167 79.2209 14.4799C79.5117 13.9356 79.657 13.3541 79.657 12.7352C79.657 11.9971 79.4967 11.3597 79.1761 10.8228C78.863 10.2786 78.397 9.86105 77.7782 9.57028C77.1594 9.27951 76.4026 9.13412 75.5079 9.13412H71.5937V24.2319H70.2181V7.94866ZM80.2721 24.2319L76.0559 16.9514L77.5322 16.9403L81.7372 24.0865V24.2319H80.2721ZM87.7651 7.94866V24.2319H84.4212V7.94866H87.7651ZM104.16 7.94866V24.2319H100.805L94.2628 13.3168V24.2319H90.9077V7.94866H94.2628L100.816 18.875V7.94866H104.16ZM115.556 19.971C115.556 19.6802 115.512 19.4193 115.422 19.1881C115.34 18.9496 115.183 18.7333 114.952 18.5395C114.721 18.3382 114.397 18.1406 113.979 17.9468C113.562 17.7529 113.021 17.5516 112.358 17.3429C111.62 17.1043 110.919 16.8359 110.255 16.5376C109.599 16.2394 109.018 15.8927 108.511 15.4976C108.011 15.095 107.616 14.629 107.325 14.0996C107.042 13.5703 106.9 12.9552 106.9 12.2543C106.9 11.5759 107.049 10.9608 107.348 10.409C107.646 9.84987 108.063 9.37271 108.6 8.97755C109.137 8.57494 109.771 8.26553 110.501 8.04932C111.239 7.8331 112.048 7.72499 112.928 7.72499C114.129 7.72499 115.176 7.94121 116.071 8.37364C116.965 8.80607 117.659 9.3988 118.151 10.1518C118.65 10.9049 118.9 11.766 118.9 12.7352H115.567C115.567 12.2581 115.467 11.8405 115.265 11.4827C115.072 11.1173 114.773 10.8303 114.371 10.6215C113.976 10.4128 113.476 10.3084 112.872 10.3084C112.291 10.3084 111.806 10.3979 111.418 10.5768C111.031 10.7483 110.74 10.9831 110.546 11.2814C110.352 11.5721 110.255 11.9002 110.255 12.2655C110.255 12.5414 110.322 12.7911 110.457 13.0148C110.598 13.2385 110.807 13.4473 111.083 13.6411C111.359 13.8349 111.698 14.0176 112.101 14.1891C112.503 14.3606 112.969 14.5283 113.498 14.6924C114.386 14.9608 115.165 15.2627 115.836 15.5982C116.514 15.9337 117.081 16.3102 117.536 16.7278C117.991 17.1453 118.334 17.6187 118.565 18.1481C118.796 18.6774 118.911 19.2776 118.911 19.9486C118.911 20.6569 118.773 21.2907 118.498 21.8498C118.222 22.409 117.823 22.8825 117.301 23.2701C116.779 23.6578 116.156 23.9523 115.433 24.1536C114.71 24.355 113.901 24.4556 113.006 24.4556C112.201 24.4556 111.407 24.3512 110.624 24.1425C109.841 23.9262 109.129 23.6019 108.488 23.1695C107.855 22.7371 107.348 22.1853 106.967 21.5143C106.587 20.8433 106.397 20.0493 106.397 19.1322H109.763C109.763 19.6392 109.841 20.0679 109.998 20.4183C110.155 20.7688 110.375 21.0521 110.658 21.2683C110.949 21.4845 111.292 21.6411 111.687 21.738C112.089 21.8349 112.529 21.8834 113.006 21.8834C113.588 21.8834 114.065 21.8014 114.438 21.6373C114.818 21.4733 115.098 21.2459 115.277 20.9551C115.463 20.6644 115.556 20.3363 115.556 19.971ZM130.184 7.94866H133.528V18.7073C133.528 19.9598 133.26 21.0148 132.723 21.8722C132.194 22.7296 131.459 23.3745 130.52 23.807C129.588 24.2394 128.514 24.4556 127.299 24.4556C126.084 24.4556 125.003 24.2394 124.056 23.807C123.116 23.3745 122.378 22.7296 121.841 21.8722C121.312 21.0148 121.047 19.9598 121.047 18.7073V7.94866H124.402V18.7073C124.402 19.4379 124.518 20.0344 124.749 20.4966C124.98 20.9589 125.312 21.2981 125.745 21.5143C126.184 21.7305 126.703 21.8387 127.299 21.8387C127.91 21.8387 128.429 21.7305 128.854 21.5143C129.286 21.2981 129.614 20.9589 129.838 20.4966C130.069 20.0344 130.184 19.4379 130.184 18.7073V7.94866ZM136.291 7.94866H142.363C143.608 7.94866 144.678 8.13506 145.573 8.50784C146.475 8.88063 147.168 9.43235 147.653 10.163C148.138 10.8937 148.38 11.7921 148.38 12.8582C148.38 13.7306 148.231 14.4799 147.933 15.1061C147.642 15.725 147.228 16.2431 146.691 16.6607C146.162 17.0707 145.539 17.3988 144.824 17.6448L143.761 18.204H138.483L138.46 15.587H142.386C142.975 15.587 143.463 15.4827 143.851 15.2739C144.238 15.0651 144.529 14.7744 144.723 14.4016C144.924 14.0288 145.025 13.5964 145.025 13.1043C145.025 12.5824 144.928 12.1313 144.734 11.7511C144.54 11.3708 144.246 11.0801 143.851 10.8788C143.456 10.6775 142.96 10.5768 142.363 10.5768H139.646V24.2319H136.291V7.94866ZM145.394 24.2319L141.681 16.9738L145.226 16.9514L148.984 24.0754V24.2319H145.394ZM161.89 21.615V24.2319H153.223V21.615H161.89ZM154.319 7.94866V24.2319H150.963V7.94866H154.319ZM160.76 14.5805V17.1304H153.223V14.5805H160.76ZM161.879 7.94866V10.5768H153.223V7.94866H161.879ZM177.099 7.94866V24.2319H173.744L167.202 13.3168V24.2319H163.847V7.94866H167.202L173.756 18.875V7.94866H177.099ZM186.963 7.94866V24.2319H183.619V7.94866H186.963ZM191.974 7.94866V10.5768H178.687V7.94866H191.974Z" fill="white"/>
<defs>
<clipPath id="clip0_84_7923">
<rect width="25.7864" height="27.8059" fill="white" transform="translate(0 0.5)"/>
</clipPath>
</defs>
</svg>
