<svg width="159" height="25" viewBox="0 0 159 25" fill="none" xmlns="http://www.w3.org/2000/svg">
<g clip-path="url(#clip0_105_8227)">
<path d="M18.6006 14.7525C18.4338 15.0558 18.2589 15.3547 18.0761 15.6491C17.9107 15.9163 17.7395 16.1793 17.5627 16.438C15.866 14.615 13.5138 13.5333 11.0188 13.4286C10.8802 13.4221 10.7398 13.4188 10.5989 13.4188C10.4579 13.4188 10.3175 13.4221 10.1786 13.4286C8.35142 13.5074 6.58609 14.1101 5.09529 15.1641C5.41389 15.6433 5.75369 16.1067 6.1147 16.5542C6.15532 16.6051 6.19684 16.6559 6.23895 16.7061C7.39839 15.8928 8.76497 15.4216 10.1816 15.3466C10.3192 15.3392 10.4579 15.3355 10.5977 15.3353C10.7374 15.3351 10.8761 15.3388 11.0137 15.3466C12.4303 15.4217 13.7969 15.8929 14.9564 16.7061C15.4845 17.0762 15.9633 17.5115 16.3811 18.0017C16.1334 18.3013 15.8774 18.5934 15.6132 18.8781C15.437 19.0687 15.2571 19.2553 15.0738 19.4379C14.7649 19.7478 14.4463 20.0477 14.118 20.3378C13.9638 20.4748 13.8073 20.6093 13.6484 20.741C13.2599 21.0655 12.8593 21.3754 12.4465 21.6705C12.3369 21.7505 12.2258 21.828 12.1141 21.9047C11.6242 22.2435 11.1193 22.561 10.5992 22.8574C10.08 22.5603 9.57506 22.2427 9.08423 21.9047C8.97222 21.828 8.86111 21.7505 8.75149 21.6705C8.3393 21.3754 7.93867 21.0659 7.54958 20.7422C7.93301 20.2007 8.45517 19.7712 9.06182 19.4983C9.55445 19.8935 10.0668 20.2644 10.5989 20.6108C11.1299 20.2648 11.6422 19.8939 12.1356 19.4983L12.2694 19.3901C12.7513 18.9972 13.2124 18.5812 13.6529 18.142C13.0545 17.7586 12.3882 17.4918 11.6897 17.356C10.9696 17.2163 10.2293 17.2163 9.50925 17.356C8.16429 17.6189 6.96101 18.3587 6.12306 19.4379C5.93987 19.2549 5.76016 19.0683 5.58394 18.8781C5.3187 18.5934 5.06184 18.3013 4.81333 18.0017C4.62516 17.7751 4.44216 17.5444 4.26435 17.3096C4.04631 17.0248 3.83653 16.7342 3.63502 16.438C3.4576 16.1793 3.28625 15.9163 3.12098 15.6491C2.93838 15.3555 2.76345 15.0566 2.59619 14.7525C3.06438 14.2959 3.57123 13.8802 4.11112 13.5101C5.62786 12.4669 7.37684 11.8065 9.20728 11.5856C9.34677 11.5687 9.48805 11.5559 9.62903 11.5428C9.94862 11.5165 10.2717 11.5031 10.5983 11.5027C10.9241 11.5027 11.2479 11.5164 11.5672 11.5428C11.7085 11.555 11.8495 11.5687 11.9889 11.5856C14.4827 11.8899 16.8063 13.0028 18.6006 14.7525Z" fill="#F5A623"/>
<path d="M1.92771 4.48215C1.92622 4.54337 1.92622 4.60399 1.92622 4.66521C1.92622 4.72642 1.92622 4.78704 1.92771 4.84856V4.85153C1.9301 5.19684 1.94324 5.53977 1.96415 5.88121C2.5746 5.57329 3.20136 5.29851 3.84168 5.05806L3.85692 5.05241C4.48657 4.81646 5.12847 4.61419 5.77985 4.44649H5.78403C6.41244 4.28452 7.04878 4.15468 7.69054 4.0575C7.6995 4.05602 7.70936 4.05423 7.71802 4.05364C8.34402 3.95855 8.97445 3.89498 9.6069 3.86316C9.62393 3.86167 9.64185 3.86078 9.65887 3.85989C9.9701 3.84483 10.2834 3.8373 10.5988 3.8373C10.9142 3.8373 11.2276 3.84483 11.5388 3.85989C11.5558 3.85989 11.5734 3.86167 11.5905 3.86316C12.2229 3.89448 12.8533 3.95756 13.4794 4.05215C13.4883 4.05215 13.4979 4.05453 13.5068 4.05602C14.1487 4.1532 14.7851 4.28303 15.4136 4.44501C15.4149 4.44513 15.4162 4.44513 15.4175 4.44501C16.0689 4.61296 16.7108 4.81552 17.3405 5.05182C17.3452 5.0536 17.3509 5.05598 17.356 5.05747C18.6607 5.54827 19.9075 6.17954 21.0743 6.94001C21.0223 7.42261 20.9539 7.89976 20.8691 8.37146C20.8294 8.59493 20.7855 8.81721 20.7377 9.03771C20.1785 8.63201 19.5954 8.25998 18.9916 7.92363C18.4054 7.59725 17.8004 7.30542 17.1798 7.04967C16.7054 6.85354 16.2208 6.679 15.7258 6.52606C15.5911 6.48505 15.4569 6.44464 15.3201 6.40719C14.755 6.24757 14.1819 6.11695 13.6033 6.01583C13.5451 6.00542 13.4865 5.99473 13.4283 5.98611C12.8304 5.88813 12.2279 5.82127 11.623 5.78582C11.5866 5.78344 11.5501 5.78196 11.5128 5.78017C11.2103 5.76413 10.9057 5.7561 10.5988 5.7561C10.292 5.7561 9.98733 5.76413 9.68486 5.78017C9.64752 5.78196 9.61108 5.78344 9.57434 5.78582C8.9695 5.82131 8.36693 5.88816 7.76909 5.98611C7.71085 5.99562 7.65231 6.00632 7.59406 6.01583C7.01544 6.11701 6.44241 6.24764 5.87722 6.40719C5.74102 6.44582 5.60632 6.48624 5.47161 6.52606C4.97699 6.6794 4.49232 6.85393 4.01761 7.04967C3.39701 7.30548 2.79203 7.59731 2.20579 7.92363C2.31132 8.53421 2.44593 9.13478 2.60961 9.72535L2.65352 9.88255C3.76906 9.20654 4.96722 8.67582 6.21862 8.30341C6.43427 8.23942 6.65191 8.17999 6.87154 8.12511C7.27357 8.02487 7.68178 7.94067 8.09615 7.87252C8.43586 7.81685 8.77944 7.77277 9.12691 7.74028C9.42759 7.71116 9.73085 7.69135 10.0367 7.68085C10.2234 7.67342 10.4107 7.67044 10.5988 7.67044C10.787 7.67044 10.9743 7.67342 11.1607 7.68085C11.4665 7.69135 11.7699 7.71116 12.0708 7.74028C12.4178 7.77237 12.7614 7.81645 13.1015 7.87252C13.5159 7.94027 13.9241 8.02447 14.3261 8.12511C14.5452 8.17919 14.7627 8.23863 14.9787 8.30341C16.8831 8.87064 18.6578 9.80224 20.2033 11.046C20.0881 11.4049 19.9637 11.7593 19.8303 12.1092C19.7216 12.3933 19.6069 12.6744 19.4862 12.9526C18.9892 12.5123 18.4601 12.1094 17.9032 11.747C16.8208 11.0429 15.6412 10.4994 14.4014 10.1334C13.9701 10.0058 13.5324 9.90052 13.0902 9.81806C12.893 9.78092 12.6935 9.74763 12.4928 9.72029C11.9163 9.63839 11.335 9.59392 10.7527 9.58716C10.7016 9.58716 10.6496 9.58716 10.5985 9.58716C10.5475 9.58716 10.4955 9.58716 10.4444 9.58716C9.862 9.59361 9.28062 9.63778 8.70398 9.7194C8.50356 9.74674 8.30404 9.77884 8.10661 9.81717C7.66453 9.89995 7.22707 10.0055 6.79598 10.1334C5.5559 10.4993 4.37598 11.0428 3.2933 11.747C2.73641 12.1094 2.20729 12.5123 1.71027 12.9526C1.5894 12.6752 1.47481 12.3941 1.36648 12.1092C1.23267 11.7591 1.10832 11.4047 0.993426 11.046C0.909794 10.7862 0.83124 10.5229 0.758062 10.2585C0.646354 9.85669 0.545697 9.44987 0.459377 9.0383C0.411588 8.8181 0.36798 8.59552 0.328255 8.37205C0.244026 7.89996 0.175726 7.42281 0.123357 6.94061C0.105436 6.78073 0.089705 6.62016 0.0761646 6.4589C0.0283751 5.89963 0.00298685 5.33432 0 4.76297C0 4.73058 0 4.6976 0 4.66521C0 4.06097 0.0253882 3.46307 0.0761646 2.87151C0.0861208 2.75265 0.0972717 2.63378 0.109617 2.51491C0.779269 2.17199 1.46804 1.86135 2.17592 1.583L2.19772 1.57498C2.87574 1.3103 3.56829 1.07742 4.27538 0.876342C4.28613 0.873073 4.29569 0.869804 4.30524 0.867427C4.98226 0.675458 5.67232 0.514592 6.37543 0.38483C6.37932 0.389969 6.38291 0.395326 6.38618 0.400877C6.3877 0.394629 6.3896 0.388476 6.39186 0.382452C7.07047 0.256454 7.75953 0.161559 8.45905 0.0977676C8.4704 0.117083 8.48176 0.137291 8.49131 0.157201C8.49878 0.136102 8.50684 0.114409 8.51491 0.0933101C9.19033 0.0324901 9.87333 0.00138677 10.5639 0C10.5761 0.0258534 10.5875 0.0517069 10.5988 0.0775603C10.6102 0.0517069 10.6215 0.0258534 10.6335 0C11.3238 0 12.0064 0.0309052 12.6813 0.0927157C12.6893 0.113815 12.6977 0.135508 12.7049 0.156606C12.7147 0.137291 12.7261 0.117083 12.7374 0.0971732C13.4363 0.160767 14.1254 0.255662 14.8046 0.381858C14.807 0.388396 14.8085 0.394042 14.8103 0.400282C14.8133 0.39467 14.8168 0.389305 14.8207 0.384235C15.5231 0.514196 16.2132 0.675062 16.8912 0.866833C16.9017 0.86921 16.9115 0.872479 16.9211 0.875748C17.629 1.07624 18.3218 1.30931 18.9996 1.57498C19.0071 1.57736 19.0143 1.58063 19.0217 1.583C19.7282 1.86036 20.417 2.1705 21.0881 2.51343C21.1003 2.6323 21.1116 2.75116 21.1212 2.87003C21.1718 3.46178 21.1972 4.05968 21.1974 4.66372C21.1974 4.69611 21.1974 4.7291 21.1974 4.76149C20.6329 4.43302 20.0519 4.131 19.4545 3.85543C19.3864 3.82393 19.3182 3.79293 19.2499 3.76242C18.733 3.53241 18.2057 3.32182 17.6681 3.13064C17.5343 3.0831 17.3993 3.03614 17.2634 2.99187C16.7873 2.83338 16.3042 2.69242 15.8142 2.569C15.6293 2.52145 15.4435 2.47717 15.2562 2.43498C14.811 2.33592 14.3607 2.25014 13.9053 2.17763C13.6845 2.14316 13.4638 2.11225 13.241 2.08492C12.8151 2.03182 12.385 1.99151 11.9507 1.96397C11.7129 1.94852 11.474 1.93742 11.2338 1.93069C11.023 1.92445 10.8106 1.92118 10.5982 1.92118C10.3859 1.92118 10.1732 1.92445 9.96234 1.93069C9.72219 1.93722 9.48325 1.94832 9.24549 1.96397C8.8116 1.99131 8.3815 2.03162 7.95517 2.08492C7.73206 2.11225 7.51133 2.14435 7.2909 2.17763C6.83511 2.24955 6.38469 2.33533 5.93965 2.43498C5.75237 2.47717 5.56659 2.52145 5.3817 2.569C4.89186 2.69262 4.40879 2.83358 3.93249 2.99187C3.79718 3.03614 3.66158 3.0831 3.52777 3.13064C2.99013 3.32122 2.46306 3.53231 1.94653 3.7639C1.93438 4.00164 1.92761 4.23996 1.92622 4.47888L1.92771 4.48215Z" fill="#F5A623"/>
</g>
<path d="M42.8253 15.0717H43.9561C43.8642 15.9727 43.616 16.751 43.2115 17.4068C42.807 18.0565 42.2554 18.556 41.5567 18.9053C40.858 19.2547 40.0153 19.4293 39.0285 19.4293C38.2685 19.4293 37.579 19.2853 36.96 18.9973C36.3471 18.7092 35.8201 18.3016 35.3788 17.7746C34.9375 17.2413 34.5974 16.6039 34.3583 15.8624C34.1193 15.1208 33.9998 14.2964 33.9998 13.3894V11.7162C33.9998 10.8091 34.1193 9.98784 34.3583 9.25238C34.5974 8.51079 34.9406 7.87339 35.388 7.34018C35.8354 6.80697 36.3717 6.39633 36.9968 6.10828C37.6219 5.82022 38.3268 5.67619 39.1113 5.67619C40.0612 5.67619 40.8825 5.85087 41.5751 6.20021C42.2676 6.54343 42.8131 7.03986 43.2115 7.68952C43.616 8.33918 43.8642 9.12368 43.9561 10.043H42.8253C42.7395 9.3198 42.5495 8.70691 42.2554 8.20435C41.9612 7.70178 41.5536 7.31873 41.0327 7.05519C40.5178 6.78552 39.8774 6.65068 39.1113 6.65068C38.4861 6.65068 37.9284 6.77019 37.4381 7.00922C36.9478 7.24824 36.531 7.59146 36.1878 8.03887C35.8446 8.48015 35.581 9.01029 35.3972 9.62931C35.2194 10.2483 35.1306 10.9378 35.1306 11.6978V13.3894C35.1306 14.1248 35.2164 14.8021 35.388 15.4211C35.5596 16.0401 35.8109 16.5764 36.1418 17.0299C36.4789 17.4834 36.8895 17.8358 37.3737 18.0871C37.8579 18.3384 38.4095 18.4641 39.0285 18.4641C39.8191 18.4641 40.478 18.3384 41.0051 18.0871C41.5383 17.8297 41.952 17.4497 42.2462 16.9472C42.5404 16.4446 42.7334 15.8195 42.8253 15.0717ZM51.1085 6.65987L46.4751 19.2455H45.2983L50.3546 5.86006H51.1729L51.1085 6.65987ZM55.319 19.2455L50.6764 6.65987L50.6121 5.86006H51.4303L56.4958 19.2455H55.319ZM54.4916 14.5201V15.4946H47.3852V14.5201H54.4916ZM58.4539 5.86006H62.8024C63.7278 5.86006 64.5307 6.01022 65.211 6.31053C65.8913 6.61084 66.4153 7.05519 66.783 7.64356C67.1569 8.2258 67.3438 8.94287 67.3438 9.79479C67.3438 10.4261 67.209 10.9991 66.9393 11.5139C66.6758 12.0288 66.3111 12.4608 65.8453 12.8102C65.3795 13.1534 64.8402 13.3894 64.2273 13.5181L63.832 13.6652H59.1894L59.171 12.6999H63.0598C63.7585 12.6999 64.3407 12.565 64.8065 12.2954C65.2723 12.0257 65.6216 11.6702 65.8545 11.2289C66.0936 10.7815 66.2131 10.3035 66.2131 9.79479C66.2131 9.18803 66.0813 8.66401 65.8178 8.22273C65.5603 7.77533 65.1773 7.43211 64.6686 7.19309C64.1599 6.95406 63.5378 6.83455 62.8024 6.83455H59.5847V19.2455H58.4539V5.86006ZM66.7187 19.2455L63.2528 13.2607L64.4663 13.2515L67.923 19.126V19.2455H66.7187ZM72.8782 5.86006V19.2455H70.1294V5.86006H72.8782ZM86.3556 5.86006V19.2455H83.5976L78.2195 10.2728V19.2455H75.4615V5.86006H78.2195L83.6068 14.8419V5.86006H86.3556ZM95.7235 15.7428C95.7235 15.5038 95.6867 15.2893 95.6132 15.0993C95.5458 14.9032 95.4171 14.7255 95.2271 14.5661C95.0371 14.4006 94.7705 14.2382 94.4273 14.0789C94.084 13.9195 93.6397 13.754 93.0942 13.5824C92.4875 13.3863 91.9114 13.1657 91.3659 12.9205C90.8266 12.6753 90.3485 12.3904 89.9317 12.0655C89.5211 11.7346 89.1963 11.3515 88.9573 10.9164C88.7244 10.4812 88.6079 9.97559 88.6079 9.39947C88.6079 8.84175 88.7305 8.33612 88.9756 7.88258C89.2208 7.42292 89.564 7.03067 90.0053 6.70584C90.4466 6.37488 90.9675 6.12053 91.5682 5.9428C92.1749 5.76506 92.8399 5.67619 93.5631 5.67619C94.5498 5.67619 95.4109 5.85393 96.1464 6.2094C96.8819 6.56488 97.4519 7.05212 97.8564 7.67114C98.267 8.29015 98.4723 8.99803 98.4723 9.79479H95.7327C95.7327 9.40254 95.65 9.05932 95.4845 8.76514C95.3251 8.46482 95.08 8.22886 94.749 8.05725C94.4242 7.88565 94.0136 7.79984 93.5171 7.79984C93.0391 7.79984 92.6407 7.87339 92.322 8.02048C92.0033 8.16144 91.7643 8.3545 91.6049 8.59966C91.4456 8.83868 91.3659 9.10835 91.3659 9.40867C91.3659 9.63543 91.4211 9.84075 91.5314 10.0246C91.6478 10.2085 91.8194 10.3801 92.0462 10.5394C92.273 10.6988 92.5518 10.8489 92.8828 10.9899C93.2138 11.1309 93.5968 11.2688 94.032 11.4036C94.7613 11.6242 95.4018 11.8725 95.9533 12.1483C96.5111 12.4241 96.9769 12.7336 97.3507 13.0768C97.7246 13.42 98.0065 13.8092 98.1965 14.2443C98.3865 14.6795 98.4815 15.1729 98.4815 15.7245C98.4815 16.3067 98.3681 16.8276 98.1414 17.2873C97.9146 17.747 97.5867 18.1362 97.1577 18.4549C96.7287 18.7736 96.2169 19.0157 95.6224 19.1811C95.0279 19.3466 94.3629 19.4293 93.6274 19.4293C92.9655 19.4293 92.3128 19.3435 91.6693 19.1719C91.0257 18.9942 90.4404 18.7276 89.9134 18.3721C89.3924 18.0166 88.9756 17.5631 88.6631 17.0115C88.3505 16.4599 88.1942 15.8072 88.1942 15.0533H90.9614C90.9614 15.4701 91.0257 15.8225 91.1545 16.1106C91.2832 16.3986 91.464 16.6315 91.6969 16.8093C91.9359 16.987 92.2178 17.1157 92.5426 17.1954C92.8736 17.2751 93.2352 17.3149 93.6274 17.3149C94.1055 17.3149 94.4977 17.2475 94.8042 17.1126C95.1168 16.9778 95.3466 16.7909 95.4937 16.5519C95.6469 16.3128 95.7235 16.0432 95.7235 15.7428ZM107.748 5.86006H110.497V14.704C110.497 15.7336 110.276 16.6009 109.835 17.3057C109.4 18.0105 108.796 18.5407 108.024 18.8961C107.258 19.2516 106.375 19.4293 105.376 19.4293C104.377 19.4293 103.489 19.2516 102.71 18.8961C101.938 18.5407 101.331 18.0105 100.89 17.3057C100.455 16.6009 100.237 15.7336 100.237 14.704V5.86006H102.995V14.704C102.995 15.3046 103.09 15.7949 103.28 16.1749C103.47 16.5549 103.743 16.8338 104.099 17.0115C104.46 17.1893 104.886 17.2781 105.376 17.2781C105.879 17.2781 106.305 17.1893 106.654 17.0115C107.01 16.8338 107.279 16.5549 107.463 16.1749C107.653 15.7949 107.748 15.3046 107.748 14.704V5.86006ZM112.768 5.86006H117.76C118.783 5.86006 119.663 6.01328 120.398 6.31972C121.14 6.62617 121.71 7.0797 122.108 7.68033C122.507 8.28096 122.706 9.01948 122.706 9.89591C122.706 10.613 122.583 11.2289 122.338 11.7438C122.099 12.2525 121.759 12.6784 121.318 13.0216C120.882 13.3587 120.371 13.6284 119.782 13.8306L118.909 14.2903H114.57L114.551 12.1391H117.778C118.262 12.1391 118.664 12.0533 118.983 11.8817C119.301 11.7101 119.54 11.471 119.7 11.1646C119.865 10.8581 119.948 10.5027 119.948 10.0982C119.948 9.66914 119.868 9.29835 119.709 8.98578C119.549 8.6732 119.307 8.43418 118.983 8.2687C118.658 8.10322 118.25 8.02048 117.76 8.02048H115.526V19.2455H112.768V5.86006ZM120.251 19.2455L117.199 13.279L120.113 13.2607L123.202 19.1168V19.2455H120.251ZM133.811 17.0943V19.2455H126.687V17.0943H133.811ZM127.587 5.86006V19.2455H124.829V5.86006H127.587ZM132.883 11.3117V13.4077H126.687V11.3117H132.883ZM133.802 5.86006V8.02048H126.687V5.86006H133.802ZM146.314 5.86006V19.2455H143.556L138.178 10.2728V19.2455H135.42V5.86006H138.178L143.565 14.8419V5.86006H146.314ZM154.423 5.86006V19.2455H151.674V5.86006H154.423ZM158.541 5.86006V8.02048H147.62V5.86006H158.541Z" fill="#00244F"/>
<defs>
<clipPath id="clip0_105_8227">
<rect width="21.1974" height="22.8574" fill="white"/>
</clipPath>
</defs>
</svg>
