<svg width="24" height="20" viewBox="0 0 24 20" fill="none" xmlns="http://www.w3.org/2000/svg">
<path d="M21.315 1.86522C19.7133 1.31162 17.9423 1.73069 16.5708 2.66444L14.7839 3.88131L5.36484 0.612719L2.25141 2.72678L9.12984 7.73209L6.2325 9.70506L4.82812 8.54866L0 9.6235L6.33328 16.3205L24 4.261C23.3452 3.18475 22.5431 2.28991 21.315 1.86522ZM12.4823 10.4316L6.52969 14.4854L2.70234 10.4588L4.46297 10.0697L6.15281 11.4605L11.572 7.77006L4.69594 2.76662L5.57062 2.17272L13.8553 5.04756L12.4823 10.4316ZM14.2388 9.23584L15.2512 5.26459L17.3625 3.82694C18.7739 2.86553 20.7375 2.64897 22.0331 3.92772L14.2388 9.23584Z" fill="black"/>
<path d="M0 17.981H24V19.3873H0V17.981Z" fill="black"/>
</svg>
