<svg width="122" height="18" viewBox="0 0 122 18" fill="none" xmlns="http://www.w3.org/2000/svg">
<path d="M8.09375 1.5625C8.21875 1.3125 8.375 1.15625 8.625 1.0625C8.875 1 9.09375 1 9.34375 1.0625C9.59375 1.15625 9.78125 1.3125 9.90625 1.5625L11.9375 5.6875L16.5 6.34375C16.75 6.40625 16.9688 6.53125 17.125 6.71875C17.2812 6.9375 17.3438 7.15625 17.3438 7.40625C17.3438 7.65625 17.25 7.875 17.0625 8.0625L13.75 11.2812L14.5312 15.8438C14.5625 16.0938 14.5 16.3438 14.375 16.5625C14.25 16.7812 14.0625 16.9062 13.8125 16.9688C13.5625 17.0312 13.3125 17 13.0938 16.875L9 14.75L4.90625 16.875C4.65625 17 4.4375 17.0312 4.1875 16.9688C3.9375 16.9062 3.71875 16.7812 3.59375 16.5625C3.46875 16.3438 3.40625 16.0938 3.46875 15.8438L4.25 11.2812L0.9375 8.0625C0.75 7.875 0.625 7.65625 0.625 7.40625C0.625 7.15625 0.6875 6.9375 0.84375 6.71875C1 6.53125 1.21875 6.40625 1.5 6.34375L6.0625 5.6875L8.09375 1.5625Z" fill="#F7B500"/>
<path d="M34.0938 1.5625C34.2188 1.3125 34.375 1.15625 34.625 1.0625C34.875 1 35.0938 1 35.3438 1.0625C35.5938 1.15625 35.7812 1.3125 35.9062 1.5625L37.9375 5.6875L42.5 6.34375C42.75 6.40625 42.9688 6.53125 43.125 6.71875C43.2812 6.9375 43.3438 7.15625 43.3438 7.40625C43.3438 7.65625 43.25 7.875 43.0625 8.0625L39.75 11.2812L40.5312 15.8438C40.5625 16.0938 40.5 16.3438 40.375 16.5625C40.25 16.7812 40.0625 16.9062 39.8125 16.9688C39.5625 17.0312 39.3125 17 39.0938 16.875L35 14.75L30.9062 16.875C30.6562 17 30.4375 17.0312 30.1875 16.9688C29.9375 16.9062 29.7188 16.7812 29.5938 16.5625C29.4688 16.3438 29.4062 16.0938 29.4688 15.8438L30.25 11.2812L26.9375 8.0625C26.75 7.875 26.625 7.65625 26.625 7.40625C26.625 7.15625 26.6875 6.9375 26.8438 6.71875C27 6.53125 27.2188 6.40625 27.5 6.34375L32.0625 5.6875L34.0938 1.5625Z" fill="#F7B500"/>
<path d="M60.0938 1.5625C60.2188 1.3125 60.375 1.15625 60.625 1.0625C60.875 1 61.0938 1 61.3438 1.0625C61.5938 1.15625 61.7812 1.3125 61.9062 1.5625L63.9375 5.6875L68.5 6.34375C68.75 6.40625 68.9688 6.53125 69.125 6.71875C69.2812 6.9375 69.3438 7.15625 69.3438 7.40625C69.3438 7.65625 69.25 7.875 69.0625 8.0625L65.75 11.2812L66.5312 15.8438C66.5625 16.0938 66.5 16.3438 66.375 16.5625C66.25 16.7812 66.0625 16.9062 65.8125 16.9688C65.5625 17.0312 65.3125 17 65.0938 16.875L61 14.75L56.9062 16.875C56.6562 17 56.4375 17.0312 56.1875 16.9688C55.9375 16.9062 55.7188 16.7812 55.5938 16.5625C55.4688 16.3438 55.4062 16.0938 55.4688 15.8438L56.25 11.2812L52.9375 8.0625C52.75 7.875 52.625 7.65625 52.625 7.40625C52.625 7.15625 52.6875 6.9375 52.8438 6.71875C53 6.53125 53.2188 6.40625 53.5 6.34375L58.0625 5.6875L60.0938 1.5625Z" fill="#F7B500"/>
<path d="M86.0938 1.5625C86.2188 1.3125 86.375 1.15625 86.625 1.0625C86.875 1 87.0938 1 87.3438 1.0625C87.5938 1.15625 87.7812 1.3125 87.9062 1.5625L89.9375 5.6875L94.5 6.34375C94.75 6.40625 94.9688 6.53125 95.125 6.71875C95.2812 6.9375 95.3438 7.15625 95.3438 7.40625C95.3438 7.65625 95.25 7.875 95.0625 8.0625L91.75 11.2812L92.5312 15.8438C92.5625 16.0938 92.5 16.3438 92.375 16.5625C92.25 16.7812 92.0625 16.9062 91.8125 16.9688C91.5625 17.0312 91.3125 17 91.0938 16.875L87 14.75L82.9062 16.875C82.6562 17 82.4375 17.0312 82.1875 16.9688C81.9375 16.9062 81.7188 16.7812 81.5938 16.5625C81.4688 16.3438 81.4062 16.0938 81.4688 15.8438L82.25 11.2812L78.9375 8.0625C78.75 7.875 78.625 7.65625 78.625 7.40625C78.625 7.15625 78.6875 6.9375 78.8438 6.71875C79 6.53125 79.2188 6.40625 79.5 6.34375L84.0625 5.6875L86.0938 1.5625Z" fill="#F7B500"/>
<path d="M112.094 1.5625C112.219 1.3125 112.375 1.15625 112.625 1.0625C112.875 1 113.094 1 113.344 1.0625C113.594 1.15625 113.781 1.3125 113.906 1.5625L115.938 5.6875L120.5 6.34375C120.75 6.40625 120.969 6.53125 121.125 6.71875C121.281 6.9375 121.344 7.15625 121.344 7.40625C121.344 7.65625 121.25 7.875 121.062 8.0625L117.75 11.2812L118.531 15.8438C118.562 16.0938 118.5 16.3438 118.375 16.5625C118.25 16.7812 118.062 16.9062 117.812 16.9688C117.562 17.0312 117.312 17 117.094 16.875L113 14.75L108.906 16.875C108.656 17 108.438 17.0312 108.188 16.9688C107.938 16.9062 107.719 16.7812 107.594 16.5625C107.469 16.3438 107.406 16.0938 107.469 15.8438L108.25 11.2812L104.938 8.0625C104.75 7.875 104.625 7.65625 104.625 7.40625C104.625 7.15625 104.688 6.9375 104.844 6.71875C105 6.53125 105.219 6.40625 105.5 6.34375L110.062 5.6875L112.094 1.5625Z" fill="#DFE1E3"/>
</svg>
