<svg width="96" height="16" viewBox="0 0 96 16" fill="none" xmlns="http://www.w3.org/2000/svg">
<path fill-rule="evenodd" clip-rule="evenodd" d="M9.88871 6.11121L8 0L6.11129 6.11121L0 6.11146L4.944 9.88864L3.05573 16L8 12.2232L12.9443 16L11.5305 11.4243L8 12.2232L11.056 9.88864L16 6.11146L9.88871 6.11121Z" fill="#005128"/>
<path d="M11.056 9.88864L8 12.2232L11.5305 11.4243L11.056 9.88864Z" fill="#005128"/>
<path fill-rule="evenodd" clip-rule="evenodd" d="M9.88871 6.11121L8 0L6.11129 6.11121L0 6.11146L4.944 9.88864L3.05573 16L8 12.2232L12.9443 16L11.5305 11.4243L8 12.2232L11.056 9.88864L16 6.11146L9.88871 6.11121Z" fill="#00B67A"/>
<path fill-rule="evenodd" clip-rule="evenodd" d="M29.8887 6.11121L28 0L26.1113 6.11121L20 6.11146L24.944 9.88864L23.0557 16L28 12.2232L32.9443 16L31.5305 11.4243L28 12.2232L31.056 9.88864L36 6.11146L29.8887 6.11121Z" fill="#005128"/>
<path d="M31.056 9.88864L28 12.2232L31.5305 11.4243L31.056 9.88864Z" fill="#005128"/>
<path fill-rule="evenodd" clip-rule="evenodd" d="M29.8887 6.11121L28 0L26.1113 6.11121L20 6.11146L24.944 9.88864L23.0557 16L28 12.2232L32.9443 16L31.5305 11.4243L28 12.2232L31.056 9.88864L36 6.11146L29.8887 6.11121Z" fill="#00B67A"/>
<path fill-rule="evenodd" clip-rule="evenodd" d="M49.8887 6.11121L48 0L46.1113 6.11121L40 6.11146L44.944 9.88864L43.0557 16L48 12.2232L52.9443 16L51.5305 11.4243L48 12.2232L51.056 9.88864L56 6.11146L49.8887 6.11121Z" fill="#005128"/>
<path d="M51.056 9.88864L48 12.2232L51.5305 11.4243L51.056 9.88864Z" fill="#005128"/>
<path fill-rule="evenodd" clip-rule="evenodd" d="M49.8887 6.11121L48 0L46.1113 6.11121L40 6.11146L44.944 9.88864L43.0557 16L48 12.2232L52.9443 16L51.5305 11.4243L48 12.2232L51.056 9.88864L56 6.11146L49.8887 6.11121Z" fill="#00B67A"/>
<path fill-rule="evenodd" clip-rule="evenodd" d="M69.8887 6.11121L68 0L66.1113 6.11121L60 6.11146L64.944 9.88864L63.0557 16L68 12.2232L72.9443 16L71.5305 11.4243L68 12.2232L71.056 9.88864L76 6.11146L69.8887 6.11121Z" fill="#005128"/>
<path d="M71.056 9.88864L68 12.2232L71.5305 11.4243L71.056 9.88864Z" fill="#005128"/>
<path fill-rule="evenodd" clip-rule="evenodd" d="M69.8887 6.11121L68 0L66.1113 6.11121L60 6.11146L64.944 9.88864L63.0557 16L68 12.2232L72.9443 16L71.5305 11.4243L68 12.2232L71.056 9.88864L76 6.11146L69.8887 6.11121Z" fill="#00B67A"/>
<path fill-rule="evenodd" clip-rule="evenodd" d="M89.8887 6.11121L88 0L86.1113 6.11121L80 6.11146L84.944 9.88864L83.0557 16L88 12.2232L92.9443 16L91.5305 11.4243L88 12.2232L91.056 9.88864L96 6.11146L89.8887 6.11121Z" fill="#005128"/>
<path d="M91.056 9.88864L88 12.2232L91.5305 11.4243L91.056 9.88864Z" fill="#005128"/>
<path fill-rule="evenodd" clip-rule="evenodd" d="M89.8887 6.11121L88 0L86.1113 6.11121L80 6.11146L84.944 9.88864L83.0557 16L88 12.2232L92.9443 16L91.5305 11.4243L88 12.2232L91.056 9.88864L96 6.11146L89.8887 6.11121Z" fill="#00B67A"/>
</svg>
